<?xml version="1.0" encoding="UTF-8"?>
<svg width="1200" height="600" xmlns="http://www.w3.org/2000/svg">
  <defs>
    <style>
      .title { font-family: -apple-system, BlinkMacSystemFont, 'Segoe UI', Roboto, sans-serif; font-size: 24px; font-weight: 600; }
      .subtitle { font-family: -apple-system, BlinkMacSystemFont, 'Segoe UI', Roboto, sans-serif; font-size: 16px; }
      .library-badge { font-family: -apple-system, BlinkMacSystemFont, 'Segoe UI', Roboto, sans-serif; font-size: 14px; font-weight: 600; }
    </style>
  </defs>
  
  <!-- Background -->
  <rect width="1200" height="600" fill="#f8f9fa"/>
  
  <!-- Content Area -->
  <rect x="40" y="80" width="1120" height="480" fill="white" rx="8"/>
  
  <!-- Header -->
  <rect x="40" y="20" width="120" height="30" fill="undefined" rx="15"/>
  <text x="100" y="40" text-anchor="middle" fill="white" class="library-badge">Chart.js</text>
  
  <text x="60" y="120" fill="#1e293b" class="title">LTV:CAC Ratio</text>
  <text x="60" y="145" fill="#64748b" class="subtitle">Bar visualization</text>
  
  <!-- Chart Content -->
  <g transform="translate(60, 100)">
    <rect x="60" y="209.0909090909091" width="60" height="90.9090909090909" fill="undefined" rx="4"/>
    <rect x="150" y="172.72727272727275" width="60" height="127.27272727272727" fill="undefined" rx="4"/>
    <rect x="240" y="136.36363636363635" width="60" height="163.63636363636365" fill="undefined" rx="4"/>
    <rect x="330" y="154.54545454545453" width="60" height="145.45454545454547" fill="undefined" rx="4"/>
    <rect x="420" y="100" width="60" height="200" fill="undefined" rx="4"/>
    <rect x="510" y="118.18181818181819" width="60" height="181.8181818181818" fill="undefined" rx="4"/>
  </g>
  
  <!-- Axis lines for context -->
  <line x1="60" y1="400" x2="620" y2="400" stroke="#cbd5e1" stroke-width="2"/>
  <line x1="60" y1="180" x2="60" y2="400" stroke="#cbd5e1" stroke-width="2"/>
  
  <!-- Footer note -->
  <text x="600" y="580" text-anchor="middle" fill="#94a3b8" font-size="12">
    Vector graphic - scales perfectly at any resolution
  </text>
</svg>