<?xml version="1.0" encoding="UTF-8"?>
<svg width="1200" height="600" xmlns="http://www.w3.org/2000/svg">
  <defs>
    <style>
      .title { font-family: -apple-system, BlinkMacSystemFont, 'Segoe UI', Roboto, sans-serif; font-size: 24px; font-weight: 600; }
      .subtitle { font-family: -apple-system, BlinkMacSystemFont, 'Segoe UI', Roboto, sans-serif; font-size: 16px; }
      .library-badge { font-family: -apple-system, BlinkMacSystemFont, 'Segoe UI', Roboto, sans-serif; font-size: 14px; font-weight: 600; }
    </style>
  </defs>
  
  <!-- Background -->
  <rect width="1200" height="600" fill="#f8f9fa"/>
  
  <!-- Content Area -->
  <rect x="40" y="80" width="1120" height="480" fill="white" rx="8"/>
  
  <!-- Header -->
  <rect x="40" y="20" width="120" height="30" fill="undefined" rx="15"/>
  <text x="100" y="40" text-anchor="middle" fill="white" class="library-badge">Plotly.js</text>
  
  <text x="60" y="120" fill="#1e293b" class="title">FTE Efficiency</text>
  <text x="60" y="145" fill="#64748b" class="subtitle">Scatter visualization</text>
  
  <!-- Chart Content -->
  <g transform="translate(60, 100)">
    
    <path d="M 50 280 L 150 250 L 250 220 L 350 200 L 450 170 L 550 150 L 550 300 L 50 300 Z" fill="undefined" opacity="0.2"/>
    <path d="M 50 280 L 150 250 L 250 220 L 350 200 L 450 170 L 550 150" fill="none" stroke="undefined" stroke-width="3"/>
    <circle cx="50" cy="280" r="4" fill="undefined"/>
    <circle cx="150" cy="250" r="4" fill="undefined"/>
    <circle cx="250" cy="220" r="4" fill="undefined"/>
    <circle cx="350" cy="200" r="4" fill="undefined"/>
    <circle cx="450" cy="170" r="4" fill="undefined"/>
    <circle cx="550" cy="150" r="4" fill="undefined"/>
  
  </g>
  
  <!-- Axis lines for context -->
  <line x1="60" y1="400" x2="620" y2="400" stroke="#cbd5e1" stroke-width="2"/>
  <line x1="60" y1="180" x2="60" y2="400" stroke="#cbd5e1" stroke-width="2"/>
  
  <!-- Footer note -->
  <text x="600" y="580" text-anchor="middle" fill="#94a3b8" font-size="12">
    Vector graphic - scales perfectly at any resolution
  </text>
</svg>